<svg width="22" height="22" viewBox="0 0 22 22" fill="none" xmlns="http://www.w3.org/2000/svg">
<path d="M11.0025 5.35828C7.88098 5.35828 5.36319 7.87607 5.36319 10.9975C5.36319 14.119 7.88098 16.6368 11.0025 16.6368C14.1239 16.6368 16.6417 14.119 16.6417 10.9975C16.6417 7.87607 14.1239 5.35828 11.0025 5.35828ZM11.0025 14.6638C8.98528 14.6638 7.3362 13.0196 7.3362 10.9975C7.3362 8.97546 8.98037 7.33129 11.0025 7.33129C13.0245 7.33129 14.6687 8.97546 14.6687 10.9975C14.6687 13.0196 13.0196 14.6638 11.0025 14.6638ZM18.1877 5.12761C18.1877 5.8589 17.5988 6.44295 16.8724 6.44295C16.1411 6.44295 15.5571 5.85399 15.5571 5.12761C15.5571 4.40123 16.146 3.81227 16.8724 3.81227C17.5988 3.81227 18.1877 4.40123 18.1877 5.12761ZM21.9227 6.46258C21.8393 4.70061 21.4368 3.13988 20.146 1.85399C18.8601 0.568098 17.2994 0.165644 15.5374 0.0773006C13.7215 -0.0257669 8.27853 -0.0257669 6.46258 0.0773006C4.70552 0.160736 3.14479 0.56319 1.85399 1.84908C0.56319 3.13497 0.165644 4.69571 0.0773006 6.45767C-0.0257669 8.27362 -0.0257669 13.7166 0.0773006 15.5325C0.160736 17.2945 0.56319 18.8552 1.85399 20.1411C3.14479 21.427 4.70061 21.8294 6.46258 21.9178C8.27853 22.0209 13.7215 22.0209 15.5374 21.9178C17.2994 21.8344 18.8601 21.4319 20.146 20.1411C21.4319 18.8552 21.8344 17.2945 21.9227 15.5325C22.0258 13.7166 22.0258 8.27853 21.9227 6.46258ZM19.5767 17.481C19.1939 18.4429 18.4528 19.184 17.4859 19.5718C16.038 20.146 12.6025 20.0135 11.0025 20.0135C9.40245 20.0135 5.96196 20.1411 4.51902 19.5718C3.55705 19.189 2.81595 18.4479 2.42822 17.481C1.85399 16.0331 1.9865 12.5975 1.9865 10.9975C1.9865 9.39755 1.8589 5.95705 2.42822 4.51411C2.81104 3.55215 3.55215 2.81104 4.51902 2.42331C5.96687 1.84908 9.40245 1.98159 11.0025 1.98159C12.6025 1.98159 16.0429 1.85399 17.4859 2.42331C18.4479 2.80613 19.189 3.54724 19.5767 4.51411C20.1509 5.96196 20.0184 9.39755 20.0184 10.9975C20.0184 12.5975 20.1509 16.038 19.5767 17.481Z" fill="#EF4E52"/>
</svg>
