<svg width="25" height="20" viewBox="0 0 25 20" fill="none" xmlns="http://www.w3.org/2000/svg">
<path d="M21.8078 4.91985C21.8233 5.13576 21.8233 5.35172 21.8233 5.56763C21.8233 12.1531 16.8109 19.7412 7.64971 19.7412C4.82733 19.7412 2.20547 18.9237 0 17.5049C0.401007 17.5511 0.786538 17.5666 1.20297 17.5666C3.53178 17.5666 5.67558 16.78 7.38752 15.4382C5.19748 15.392 3.36216 13.9576 2.72981 11.9835C3.03829 12.0297 3.34673 12.0606 3.67064 12.0606C4.11789 12.0606 4.56518 11.9989 4.98157 11.891C2.699 11.4283 0.987018 9.42332 0.987018 7.00194V6.94027C1.65017 7.31042 2.42138 7.54176 3.23873 7.57257C1.89694 6.67803 1.01788 5.15119 1.01788 3.42383C1.01788 2.49847 1.2646 1.65022 1.69646 0.909922C4.1487 3.93279 7.83476 5.90687 11.968 6.12283C11.8909 5.75268 11.8446 5.36715 11.8446 4.98157C11.8446 2.23628 14.0655 0 16.8262 0C18.2605 0 19.556 0.601487 20.466 1.57312C21.5918 1.35722 22.6714 0.940779 23.6277 0.37015C23.2575 1.52689 22.4709 2.49852 21.4376 3.11539C22.4401 3.00748 23.4118 2.72981 24.3063 2.34428C23.6278 3.3313 22.7795 4.21036 21.8078 4.91985Z" fill="#EF4E52"/>
</svg>
