<svg width="1230" height="56" viewBox="0 0 1230 56" fill="none" xmlns="http://www.w3.org/2000/svg">
<path d="M540.298 55.7038L-7 55.8044V33.0804C-7 33.0804 -4.823 31.2706 -3.7656 31.2706C-2.7082 31.2706 -2.646 36.4991 -1.5886 36.4991C-0.531199 36.4991 4.9424 36.4991 7.1194 34.6892C9.2964 32.8793 18.0044 31.17 21.2388 29.4607C24.4732 27.7514 31.0042 29.4607 33.1812 29.4607C35.3582 29.4607 45.1236 31.2706 48.358 32.9799C51.5924 34.6892 57.066 32.9799 59.243 32.9799C61.42 32.9799 62.4774 34.7898 64.6544 34.7898C66.8314 34.7898 66.8314 32.9799 69.0084 32.9799C71.1854 32.9799 71.1854 34.7898 73.3624 34.7898C75.5394 34.7898 78.7738 36.5996 82.0704 34.7898C85.367 32.9799 90.7784 34.7898 94.0128 32.9799C97.2472 31.17 101.601 31.17 103.778 31.17C105.955 31.17 122.252 32.9799 126.606 32.9799C130.96 32.9799 132.017 36.4991 135.314 34.7898C138.61 33.0804 142.902 31.2706 144.022 31.2706C145.141 31.2706 149.433 31.2706 150.553 29.4607C151.672 27.6508 150.553 27.6508 151.672 27.6508H154.907C156.026 27.6508 157.084 27.6508 158.141 25.841C159.198 24.0311 161.375 24.0311 161.375 24.0311C161.375 24.0311 161.375 20.5119 162.495 20.5119H167.906C169.026 20.5119 172.26 20.5119 174.437 18.702C176.614 16.8921 176.614 16.8921 178.791 16.8921C180.968 16.8921 182.026 16.8921 183.145 18.702C184.265 20.5119 185.322 22.2212 186.38 22.2212H188.432C189.552 22.2212 191.667 24.0311 192.786 24.0311C193.906 24.0311 197.14 22.2212 198.198 22.2212C199.255 22.2212 201.432 24.0311 203.609 24.0311H211.198C212.317 24.0311 212.317 27.5503 214.432 25.841C216.609 24.1316 218.786 20.6124 220.963 18.8026C223.14 16.9927 225.317 15.2834 226.374 16.9927C227.432 18.702 231.786 15.1828 232.905 15.1828C234.025 15.1828 234.025 18.702 235.082 18.702H241.676C243.853 18.702 243.853 16.8921 244.91 16.8921H249.264C251.441 16.8921 252.498 15.0823 254.675 16.8921C256.852 18.702 260.087 16.8921 261.206 16.8921C262.326 16.8921 263.383 20.4113 264.441 20.4113H266.618C267.737 20.4113 268.795 18.6015 270.972 18.6015C273.149 18.6015 279.68 20.4113 282.914 22.1207C286.149 23.83 287.268 23.9305 288.326 22.1207C289.383 20.3108 291.56 20.3108 292.68 20.3108C293.799 20.3108 294.857 22.1207 295.914 22.1207H299.148C302.383 22.1207 304.56 23.9305 306.737 22.1207C308.043 20.9141 309.536 20.3108 311.091 20.3108C312.21 20.3108 315.445 22.1207 316.502 22.1207C317.56 22.1207 320.856 22.1207 321.914 20.3108C322.971 18.5009 328.445 20.3108 329.502 20.3108H332.736C333.856 20.3108 335.971 20.3108 337.09 18.5009C338.21 16.691 338.21 18.5009 340.325 16.691C342.44 14.8812 343.559 11.4625 344.679 11.4625H347.913C350.09 11.4625 352.267 13.2724 354.444 13.2724C356.621 13.2724 359.856 16.7916 360.975 18.5009C362.095 20.2102 363.152 18.5009 365.329 18.5009C367.506 18.5009 368.812 18.1993 370.989 18.1993C373.166 18.1993 373.975 18.5009 375.095 16.691C376.214 14.8812 377.272 16.691 379.449 16.691H390.334C392.511 16.691 397.922 25.4388 400.099 23.7294C402.276 22.0201 404.453 23.7294 405.51 21.9196C406.568 20.1097 409.864 23.7294 412.041 21.9196C414.218 20.1097 415.276 21.9196 415.276 21.9196C415.276 21.9196 416.395 20.1097 417.453 20.1097C418.51 20.1097 419.63 23.6289 420.687 21.9196C421.745 20.2102 422.864 20.1097 423.922 20.1097C424.979 20.1097 427.156 18.2998 428.276 18.2998C429.395 18.2998 431.51 21.819 433.687 20.1097C435.864 18.4004 436.921 16.5905 438.041 16.5905C439.161 16.5905 440.218 14.7806 441.275 14.7806H445.629C447.806 14.7806 447.806 14.7806 449.983 12.9707C452.16 11.1609 452.16 14.7806 454.337 12.9707C456.514 11.1609 457.572 12.9707 459.749 12.9707C461.926 12.9707 465.16 11.1609 466.28 11.1609H469.514C471.691 11.1609 474.117 7.34004 476.294 5.63071C478.471 3.92139 481.768 0 483.945 0C486.122 0 484.753 0.603291 489.045 0.603291C493.337 0.603291 492.466 0.402194 495.7 2.21207C498.935 4.02194 498.81 0.603291 499.93 2.41316C501.05 4.22303 498.81 4.22303 501.05 4.22303C503.289 4.22303 505.466 6.03291 506.461 4.22303C507.456 2.41316 505.901 3.41865 509.633 3.41865C511.81 3.41865 511.935 4.22303 514.112 4.22303C516.289 4.22303 516.102 5.63071 519.336 5.63071C522.571 5.63071 522.757 5.93236 523.877 5.93236H528.231C530.408 5.93236 528.231 4.12249 530.408 5.93236C532.585 7.74223 531.528 9.45155 533.642 9.45155C535.757 9.45155 536.877 11.2614 537.996 11.2614C538.805 11.4625 539.551 12.0658 540.173 12.9707V13.4735L540.858 14.5795C541.542 15.6856 542.91 14.5795 543.657 15.6856C544.403 16.7916 547.14 16.7916 548.508 16.7916C549.877 16.7916 553.36 17.8976 554.728 16.7916C556.097 15.6856 561.695 19.0037 563.747 19.0037C565.8 19.0037 566.36 17.8976 567.728 17.8976C569.096 17.8976 573.264 20.1097 575.379 20.1097C577.493 20.1097 581.599 19.0037 583.029 19.0037H589.996C591.364 19.0037 598.33 16.7916 599.699 16.7916C601.067 16.7916 602.498 17.8976 604.55 17.8976C606.603 17.8976 608.718 19.0037 610.086 19.0037C612.014 18.8026 613.88 17.9982 615.622 16.7916C616.99 15.6856 618.421 16.7916 619.105 16.7916H622.588C623.957 16.7916 626.072 17.8976 628.124 16.7916C630.177 15.6856 632.292 15.6856 634.344 15.6856C636.397 15.6856 637.827 15.6856 639.196 14.5795C640.564 13.4735 644.047 14.5795 645.416 14.5795C646.784 14.5795 650.952 12.3675 653.066 12.3675C655.119 12.3675 654.435 10.1554 655.865 10.1554C657.296 10.1554 659.349 11.2614 660.033 11.2614H665.569C666.937 11.2614 667.621 9.04936 669.052 10.1554C670.482 11.2614 671.851 10.1554 673.219 11.2614C674.588 12.3675 676.702 9.04936 678.755 7.94333C680.808 6.83729 682.922 5.73126 684.975 5.73126C687.028 5.73126 687.774 4.62523 690.511 4.62523C693.248 4.62523 698.161 6.83729 699.53 6.83729C700.898 6.83729 702.329 9.04936 703.697 10.1554C705.439 11.4625 707.305 12.1664 709.233 12.3675C710.664 12.5686 712.094 12.1664 713.401 11.2614C714.707 10.3565 716.137 9.9543 717.568 10.1554H729.324C730.692 10.1554 733.491 10.1554 734.859 9.04936C736.228 7.94333 739.027 9.04936 739.711 9.04936C742.075 9.45155 744.376 10.2559 746.677 11.2614C748.73 12.3675 751.529 13.4735 752.898 13.4735C754.266 13.4735 755.696 12.3675 757.749 12.3675C759.802 12.3675 763.285 10.1554 764.716 10.1554C766.146 10.1554 767.514 11.2614 768.883 11.2614H779.954C780.639 11.2614 781.323 10.1554 782.007 10.1554C782.505 10.2559 783.002 10.6581 783.375 11.2614C784.246 11.8647 785.242 11.8647 786.174 11.2614C787.543 10.1554 788.227 12.3675 788.974 12.3675H795.193C797.246 12.3675 798.677 11.2614 800.045 13.4735C801.413 15.6856 802.098 13.4735 803.528 13.4735H811.863C813.231 13.4735 817.399 14.5795 818.829 15.6856C820.26 16.7916 820.198 16.7916 821.628 16.7916C823.059 16.7916 824.427 15.6856 825.796 14.5795C827.164 13.4735 827.164 12.3675 827.849 13.4735C828.533 14.5795 830.647 12.3675 832.016 12.3675C833.384 12.3675 836.867 10.1554 837.552 10.1554C838.236 10.1554 843.087 9.04936 843.772 10.1554C844.456 11.2614 845.14 12.3675 846.571 12.3675H854.906C855.59 12.3675 857.704 13.4735 859.073 13.4735H862.556C864.609 13.4735 864.609 13.4735 867.408 14.5795C870.207 15.6856 873.628 14.5795 875.058 15.6856C876.8 17.0932 878.666 17.8976 880.594 17.8976C882.647 17.8976 890.982 14.5795 893.096 14.5795C895.211 14.5795 898.632 12.3675 900.063 11.2614C901.618 10.1554 903.359 10.1554 904.914 11.2614C908.273 13.6746 911.756 15.4845 915.302 16.8921C918.785 17.9982 928.488 16.8921 929.857 16.8921C931.225 16.8921 933.34 17.9982 936.076 17.9982H940.244C941.612 17.9982 945.095 15.7861 946.464 15.7861C947.832 15.7861 948.516 17.9982 949.947 17.9982C951.378 17.9982 952 15.7861 952.746 14.6801C953.555 13.574 954.736 13.574 955.545 14.6801C956.229 15.7861 959.028 16.8921 961.081 17.9982C963.133 19.1042 962.449 17.9982 964.564 19.1042C966.679 20.2102 966.617 17.9982 968.732 17.9982C970.846 17.9982 972.899 15.7861 974.951 15.7861C977.004 15.7861 977.75 17.9982 979.119 17.9982C980.487 17.9982 983.97 15.7861 985.339 14.6801C986.707 13.574 988.822 15.7861 990.19 16.8921C991.559 17.9982 992.99 15.7861 994.358 15.7861H999.21C1001.14 15.9872 1003 16.7916 1004.75 17.9982C1006.11 19.1042 1008.91 19.1042 1010.28 19.1042C1011.77 19.3053 1013.27 18.9031 1014.57 17.9982C1015.88 16.8921 1017.43 16.8921 1018.74 17.9982C1019.8 18.9031 1020.98 19.3053 1022.22 19.1042C1023.59 19.1042 1025.02 21.3163 1026.39 21.3163H1031.93C1033.3 21.3163 1037.46 19.1042 1038.89 19.1042C1040.2 19.1042 1041.38 19.9086 1042.38 21.3163C1043.06 22.4223 1045.86 23.5283 1047.23 23.5283C1049.34 23.3272 1051.46 22.5229 1053.45 21.3163C1054.82 20.2102 1056.25 21.3163 1057.62 22.4223C1058.98 23.5283 1061.78 23.5283 1063.15 23.5283C1065.27 23.3272 1067.38 22.5229 1069.37 21.3163C1070.74 20.2102 1073.54 19.1042 1074.91 20.2102C1076.28 21.3163 1079.76 21.3163 1081.13 21.3163C1082.5 21.3163 1085.98 19.1042 1088.09 19.1042H1093.63C1095 19.1042 1098.48 15.7861 1099.85 14.5795C1101.22 13.3729 1103.33 13.4735 1104.02 13.4735C1104.7 13.4735 1107.5 16.7916 1108.18 16.7916C1108.87 16.7916 1109.55 15.6856 1110.24 15.6856C1110.92 15.6856 1112.29 16.7916 1113.72 17.8976C1115.15 19.0037 1116.52 20.1097 1117.2 19.0037C1117.89 17.8976 1120 19.0037 1120.69 20.1097C1121.37 21.2157 1122.05 21.2157 1123.49 21.2157H1126.97C1127.65 21.2157 1129.02 20.1097 1130.45 21.2157C1131.88 22.3218 1135.3 21.2157 1136.67 21.2157C1138.04 21.2157 1150.54 13.3729 1151.91 12.2669C1154.15 10.7587 1156.64 10.7587 1158.88 12.2669C1160.25 13.3729 1160.93 14.479 1162.36 14.479C1163.79 14.479 1167.21 8.84826 1168.58 8.84826C1169.89 8.84826 1171.07 9.65265 1172.06 11.0603C1172.81 12.2669 1173.8 13.0713 1174.86 13.2724H1177.66C1178.35 13.2724 1181.83 14.3784 1182.51 15.4845C1183.2 16.5905 1186.68 17.6965 1188.05 17.6965C1189.42 17.6965 1192.22 15.4845 1194.27 15.4845C1196.32 15.4845 1198.44 12.1664 1199.8 12.1664C1201.17 12.1664 1201.17 13.2724 1202.6 14.3784C1204.03 15.4845 1207.46 15.4845 1208.82 15.4845C1210.19 15.4845 1211.62 14.3784 1212.99 13.2724C1214.36 12.1664 1215.79 11.0603 1217.16 11.0603H1221.33C1222.63 11.0603 1223.81 11.8647 1224.81 13.2724C1225.49 14.3784 1226.86 13.2724 1227.61 13.2724C1229.04 12.8702 1230.47 12.1664 1231.78 11.0603C1233.14 9.9543 1233.14 11.0603 1233.83 12.1664C1234.51 13.2724 1237.31 9.9543 1237.31 9.9543V54.7989H540.298V55.7038Z" fill="white"/>
</svg>
