<svg width="1230" height="437" viewBox="0 0 1230 437" fill="none" xmlns="http://www.w3.org/2000/svg">
<g clip-path="url(#clip0_16_4)">
<path d="M1230 262.2L1127.5 276.737C1025 291.631 820 320.169 615 298.587C410 276.469 205 204.231 -2.86102e-05 174.8C-205 145.369 -410 160.531 -615 174.8C-820 189.069 -1025 204.231 -1230 196.65C-1435 189.069 -1640 160.531 -1845 189.337C-2050 218.5 -2255 305.9 -2460 327.75C-2665 349.6 -2870 305.9 -3075 305.9C-3280 305.9 -3485 349.6 -3690 305.9C-3895 262.2 -4100 131.1 -4305 80.0869C-4510 29.4306 -4715 57.9694 -4920 87.4C-5125 116.831 -5330 145.369 -5535 138.413C-5740 131.1 -5945 87.4 -6150 116.563C-6355 145.369 -6560 247.931 -6765 269.513C-6970 291.631 -7175 232.769 -7380 174.8C-7585 116.831 -7790 57.9694 -7995 29.1631C-8200 0 -8405 0 -8610 36.3869C-8815 73.1306 -9020 145.369 -9225 182.113C-9430 218.5 -9635 218.5 -9840 218.5C-10045 218.5 -10250 218.5 -10455 203.963C-10660 189.069 -10865 160.531 -11070 182.113C-11275 204.231 -11480 276.469 -11685 291.363C-11890 305.9 -12095 262.2 -12300 218.5C-12505 174.8 -12710 131.1 -12915 94.7131C-13120 57.9694 -13325 29.4306 -13427.5 14.5369L-13530 0V437H-13427.5C-13325 437 -13120 437 -12915 437C-12710 437 -12505 437 -12300 437C-12095 437 -11890 437 -11685 437C-11480 437 -11275 437 -11070 437C-10865 437 -10660 437 -10455 437C-10250 437 -10045 437 -9840 437C-9635 437 -9430 437 -9225 437C-9020 437 -8815 437 -8610 437C-8405 437 -8200 437 -7995 437C-7790 437 -7585 437 -7380 437C-7175 437 -6970 437 -6765 437C-6560 437 -6355 437 -6150 437C-5945 437 -5740 437 -5535 437C-5330 437 -5125 437 -4920 437C-4715 437 -4510 437 -4305 437C-4100 437 -3895 437 -3690 437C-3485 437 -3280 437 -3075 437C-2870 437 -2665 437 -2460 437C-2255 437 -2050 437 -1845 437C-1640 437 -1435 437 -1230 437C-1025 437 -820 437 -615 437C-410 437 -205 437 -2.86102e-05 437C205 437 410 437 615 437C820 437 1025 437 1127.5 437H1230V262.2Z" fill="url(#paint0_linear_16_4)"/>
</g>
<defs>
<linearGradient id="paint0_linear_16_4" x1="1230" y1="437" x2="1230" y2="0" gradientUnits="userSpaceOnUse">
<stop stop-color="white"/>
<stop offset="1" stop-color="white"/>
</linearGradient>
<clipPath id="clip0_16_4">
<rect width="1230" height="437" fill="white" transform="matrix(-1 0 0 1 1230 0)"/>
</clipPath>
</defs>
</svg>
